<mxfile host="app.diagrams.net" modified="2024-06-15T19:28:31.874Z" agent="Mozilla/5.0 (Windows NT 10.0; Win64; x64) AppleWebKit/537.36 (KHTML, like Gecko) Chrome/126.0.0.0 Safari/537.36 Edg/126.0.0.0" version="24.5.4" etag="rdi7ydBhUgs-Hz19yGjZ" type="github">
  <diagram name="PÃ¡gina-1" id="Ru5xjxcCYWlROgiTg3E6">
    <mxGraphModel>
      <root>
        <mxCell id="0" />
        <mxCell id="1" parent="0" />
      </root>
    </mxGraphModel>
  </diagram>
</mxfile>
